<svg xmlns="http://www.w3.org/2000/svg" class="excalidraw-svg" viewBox="0 0 512 512"> <path fill="none" stroke="#1e1e1e" stroke-linecap="round" stroke-width="2" d="M0 0h512M0 0h512m0 0v512m0-512v512m0 0H0m512 0H0m0 0V0m0 512V0"/> <g stroke-linecap="round"> <path fill="#a5d8ff" fill-rule="evenodd" d="m250.168 51.731 76.84 205-76.84 203.54-78-203.54"/> <path fill="none" stroke="#1e1e1e" stroke-width="2" d="M250.168 51.731c24.58 65.57 49.16 131.14 76.84 205m-76.84-205c29.8 79.51 59.61 159.02 76.84 205m0 0c-17.36 46-34.73 91.99-76.84 203.54m76.84-203.54c-15.88 42.07-31.76 84.14-76.84 203.54m0 0c-29.21-76.23-58.42-152.45-78-203.54m78 203.54c-26.86-70.1-53.72-140.19-78-203.54m0 0c27.18-71.43 54.36-142.86 78-205m-78 205c27.77-72.99 55.54-145.98 78-205"/> </g> <g stroke-linecap="round"> <path fill="#ffc9c9" fill-rule="evenodd" d="m341.554 73.369-25.621 217.423L154.379 436.51l23.92-216.657"/> <path fill="none" stroke="#1e1e1e" stroke-width="2" d="M341.554 73.369a2425984.88 2425984.88 0 0 0-25.621 217.423m25.62-217.423c-7.518 63.783-15.036 127.567-25.62 217.423m0 0c-54.646 49.292-109.305 98.588-161.554 145.717m161.554-145.717c-34.57 31.188-69.15 62.37-161.554 145.717m0 0c5.434-49.198 10.863-98.386 23.92-216.657m-23.92 216.657c7.703-69.752 15.407-139.504 23.92-216.657m0 0c51.22-45.962 102.448-91.918 163.255-146.483M178.3 219.852c42.572-38.2 85.145-76.4 163.254-146.483"/> </g> <g stroke-linecap="round"> <path fill="#FFEE81FF" fill-rule="evenodd" d="m158.654 75.493 162.223 147.014 24.952 216.126-162.585-145.185"/> <path fill="none" stroke="#1E1E1EFF" stroke-width="2" d="M158.654 75.493c51.89 47.022 103.78 94.044 162.223 147.014M158.654 75.493c62.916 57.021 125.842 114.038 162.223 147.014m0 0c5.644 48.842 11.275 97.68 24.952 216.126m-24.952-216.126c5.16 44.67 10.318 89.34 24.952 216.126m0 0a4124535.84 4124535.84 0 0 0-162.585-145.185m162.585 145.185c-55.992-50.004-111.98-100-162.585-145.185m0 0c-8.567-75.945-17.133-151.89-24.59-217.955m24.59 217.955c-8.757-77.602-17.514-155.204-24.59-217.955"/> </g> <g stroke-linecap="round"> <path fill="#8E5DFFFF" fill-rule="evenodd" d="m87.826 139.668 211.55 56.354L420.574 376.7 209.54 322.137"/> <path fill="none" stroke="#1E1E1EFF" stroke-width="2" d="M87.826 139.668c67.666 18.023 135.333 36.046 211.55 56.354m-211.55-56.354c82.049 21.86 164.104 43.71 211.55 56.354m0 0C326.77 236.85 354.15 277.681 420.574 376.7M299.376 196.022c25.052 37.343 50.104 74.685 121.198 180.677m0 0a4124535.84 4124535.84 0 0 0-211.034-54.562m211.034 54.562a2526515.68 2526515.68 0 0 0-211.034-54.562m0 0c-42.41-63.58-84.818-127.161-121.714-182.469M209.54 322.137c-43.337-64.966-86.675-129.933-121.714-182.469"/> </g> <g stroke-linecap="round"> <path fill="#6EFF39FF" fill-rule="evenodd" d="m53.9 230.29 213.86-46.832 190.507 105.071-212.58 48.188"/> <path fill="none" stroke="#1E1E1EFF" stroke-width="2" d="M53.9 230.29c68.404-14.982 136.809-29.964 213.86-46.832M53.9 230.289c82.946-18.16 165.893-36.332 213.86-46.831m0 0c43.056 23.74 86.1 47.489 190.507 105.071M267.76 183.458c39.377 21.715 78.753 43.43 190.507 105.071m0 0a4124535.84 4124535.84 0 0 0-212.58 48.188m212.58-48.188c-73.213 16.592-146.416 33.186-212.58 48.188m0 0C178.86 299.63 112.035 262.547 53.9 230.289m191.787 106.428C177.4 298.825 109.115 260.934 53.9 230.289"/> </g> <g stroke-linecap="round"> <path fill="#FF15D8FF" fill-rule="evenodd" d="M64.892 327.51 233.53 187.902l217.476 6.113-166.88 140.227"/> <path fill="none" stroke="#1E1E1EFF" stroke-width="2" d="M64.892 327.51c53.939-44.657 107.877-89.313 168.638-139.608M64.892 327.51c65.408-54.145 130.812-108.3 168.638-139.608m0 0c49.148 1.376 98.29 2.764 217.476 6.113m-217.476-6.113c44.95 1.261 89.9 2.522 217.476 6.113m0 0a4124535.84 4124535.84 0 0 0-166.88 140.227m166.88-140.227c-57.476 48.291-114.941 96.58-166.88 140.227m0 0c-76.39-2.348-152.78-4.695-219.234-6.732m219.234 6.732c-78.058-2.395-156.115-4.79-219.234-6.732"/> </g> <g stroke-linecap="round"> <path fill="#00F090FF" fill-rule="evenodd" d="M118.833 410.017 204.77 208.66l196.109-94.203-84.089 201.1"/> <path fill="none" stroke="#1E1E1EFF" stroke-width="2" d="M118.833 410.017c27.485-64.406 54.97-128.813 85.936-201.357m-85.936 201.357c33.333-78.095 66.658-156.197 85.936-201.357m0 0c44.317-21.294 88.633-42.573 196.109-94.203M204.769 208.66c40.533-19.472 81.065-38.945 196.109-94.203m0 0a4124535.84 4124535.84 0 0 0-84.089 201.1m84.089-201.1a2429200.29 2429200.29 0 0 0-84.089 201.1m0 0c-68.977 32.913-137.954 65.825-197.956 94.46m197.956-94.46c-70.48 33.634-140.961 67.267-197.956 94.46"/> </g> <path fill="none" stroke="#1e1e1e" stroke-linecap="round" stroke-width="2" d="M193.863 245.693h87.87m-87.87 0h87.87m0 0v58.57m0-58.57v58.57m0 0h-87.87m87.87 0h-87.87m0 0v-58.57m0 58.57v-58.57m7.191-6.156 87.494 8.113m-87.494-8.113 87.494 8.113m0 0-5.408 58.32m5.408-58.32c-1.185 12.786-2.37 25.57-5.408 58.32m0 0-87.494-8.113m87.494 8.113-87.494-8.113m0 0 5.408-58.32m-5.408 58.32 5.408-58.32"/> <path fill="none" stroke="#1E1E1EFF" stroke-linecap="round" stroke-width="2" d="m208.595 233.665 86.371 16.157m-86.371-16.157 86.371 16.157m0 0-10.77 57.572m10.77-57.572c-2.36 12.621-4.721 25.243-10.77 57.572m0 0-86.37-16.158m86.37 16.158-86.37-16.158m0 0c3.612-19.314 7.225-38.63 10.769-57.57m-10.77 57.57 10.77-57.57m7.864-5.558 84.51 24.063m-84.51-24.063 84.51 24.063m0 0c-3.715 13.052-7.431 26.103-16.039 56.331m16.04-56.33-16.04 56.33m0 0-84.51-24.063m84.51 24.063c-18.37-5.23-36.74-10.46-84.51-24.063m0 0c5.38-18.899 10.762-37.798 16.039-56.33m-16.04 56.33 16.04-56.33m8.156-5.215 81.929 31.764m-81.929-31.764 81.929 31.764m0 0-21.172 54.61m21.172-54.61-21.172 54.61m0 0-81.929-31.764m81.929 31.763-81.929-31.763m0 0 21.172-54.61m-21.172 54.61c5.25-13.538 10.498-27.076 21.172-54.61m8.417-4.844 78.645 39.192m-78.645-39.192 78.645 39.192m0 0-26.124 52.422m26.124-52.422-26.124 52.422m0 0-78.645-39.193m78.645 39.193-78.645-39.193m0 0 26.124-52.421m-26.124 52.421 26.124-52.421m8.64-4.454 74.69 46.287m-74.69-46.287 74.69 46.287m0 0c-7.147 11.535-14.296 23.07-30.852 49.785m30.853-49.785-30.853 49.785m0 0-74.69-46.286m74.69 46.286-74.69-46.286m0 0 30.852-49.786m-30.852 49.786 30.852-49.786m8.828-4.043 70.098 52.986M250.5 209.553l70.098 52.986m0 0-35.318 46.724m35.318-46.724-35.318 46.724m0 0-70.098-52.986m70.098 52.986-70.098-52.986m0 0c11.85-15.675 23.698-31.351 35.318-46.724m-35.318 46.724 35.318-46.724m8.976-3.617 64.906 59.232m-64.906-59.232 64.906 59.232m0 0-39.48 43.263m39.48-43.263-39.48 43.263m0 0L219.994 249.2m64.906 59.231L219.995 249.2m0 0 39.481-43.264m-39.48 43.264 39.48-43.264"/> <path fill="none" stroke="#1E1E1EFF" stroke-linecap="round" stroke-width="2" d="m268.561 202.757 59.16 64.972m-59.16-64.972 59.16 64.972m0 0-43.307 39.433m43.307-39.433-43.307 39.433m0 0-59.16-64.972m59.16 64.972-59.16-64.972m0 0 43.307-39.433m-43.307 39.433c10.737-9.775 21.473-19.551 43.307-39.433m9.153-2.733c20.79 27.57 41.582 55.138 52.908 70.156m-52.908-70.156 52.908 70.156m0 0-46.763 35.266m46.763-35.266-46.763 35.266m0 0-52.908-70.156m52.908 70.156-52.908-70.156m0 0 46.763-35.266M230.95 235.29l46.763-35.266m9.18-2.283 46.204 74.742m-46.204-74.742 46.204 74.742m0 0-49.82 30.797m49.82-30.797-49.82 30.797m0 0-46.203-74.741m46.204 74.741-46.204-74.741m0 0 49.819-30.798m-49.82 30.798 49.82-30.798"/> </svg>
