<svg version="1.1" xmlns="http://www.w3.org/2000/svg" viewBox="0 0 512 512" width="512" height="512" class="excalidraw-svg">
  <!-- svg-source:excalidraw -->
  
  <defs>
    <style class="style-fonts">
      @font-face {
        font-family: "Virgil";
        src: url("https://excalidraw.com/Virgil.woff2");
      }
      @font-face {
        font-family: "Cascadia";
        src: url("https://excalidraw.com/Cascadia.woff2");
      }
      @font-face {
        font-family: "Assistant";
        src: url("https://excalidraw.com/Assistant-Regular.woff2");
      }
    </style>
    
  </defs>
  <g stroke-linecap="round" transform="translate(0 0) rotate(0 256 256)"><path d="M0 0 C201.43 0, 402.86 0, 512 0 M0 0 C116.9 0, 233.81 0, 512 0 M512 0 C512 153.27, 512 306.53, 512 512 M512 0 C512 123.24, 512 246.48, 512 512 M512 512 C380.1 512, 248.21 512, 0 512 M512 512 C360.79 512, 209.58 512, 0 512 M0 512 C0 336.36, 0 160.72, 0 0 M0 512 C0 344.26, 0 176.51, 0 0" stroke="#1e1e1e" stroke-width="2" fill="none"/></g><g stroke-linecap="round" transform="translate(171.6103108972178 49.374809870926526) rotate(40.12586408338797 77.42053993930543 204.26899806037454)"><path d="M78 0 C102.58 65.57, 127.16 131.14, 154.84 205 M78 0 C107.8 79.51, 137.61 159.02, 154.84 205 M154.84 205 C137.48 251, 120.11 296.99, 78 408.54 M154.84 205 C138.96 247.07, 123.08 289.14, 78 408.54 M78 408.54 C48.79 332.31, 19.58 256.09, 0 205 M78 408.54 C51.14 338.44, 24.28 268.35, 0 205 M0 205 C27.18 133.57, 54.36 62.14, 78 0 M0 205 C27.77 132.01, 55.54 59.02, 78 0" stroke="#1e1e1e" stroke-width="4" fill="none"/></g><g stroke-linecap="round" transform="translate(170.83178222797042 46.98248257726857) rotate(67.39394404301683 77.42053993930543 204.26899806037454)"><path d="M78 0 C103.91 69.13, 129.82 138.26, 154.84 205 M78 0 C100.54 60.14, 123.08 120.28, 154.84 205 M154.84 205 C128.85 273.85, 102.85 342.71, 78 408.54 M154.84 205 C138.4 248.56, 121.95 292.12, 78 408.54 M78 408.54 C60.29 362.32, 42.58 316.11, 0 205 M78 408.54 C52.89 343.01, 27.78 277.48, 0 205 M0 205 C24.47 140.68, 48.95 76.36, 78 0 M0 205 C20.34 151.54, 40.68 98.08, 78 0" stroke="#1e1e1e" stroke-width="4" fill="none"/></g><g stroke-linecap="round" transform="translate(172.3888395664651 51.767137164584625) rotate(372.85778412375913 77.42053993930543 204.26899806037454)"><path d="M78 0 C102.58 65.57, 127.16 131.14, 154.84 205 M78 0 C107.8 79.51, 137.61 159.02, 154.84 205 M154.84 205 C137.48 251, 120.11 296.99, 78 408.54 M154.84 205 C138.96 247.07, 123.08 289.14, 78 408.54 M78 408.54 C48.79 332.31, 19.58 256.09, 0 205 M78 408.54 C51.14 338.44, 24.28 268.35, 0 205 M0 205 C27.18 133.57, 54.36 62.14, 78 0 M0 205 C27.77 132.01, 55.54 59.02, 78 0" stroke="#1E1E1EFF" stroke-width="4" fill="none"/></g><g stroke-linecap="round" transform="translate(173.1673682357125 54.159464458242724) rotate(345.5897041641303 77.42053993930543 204.26899806037454)"><path d="M78 0 C102.58 65.57, 127.16 131.14, 154.84 205 M78 0 C107.8 79.51, 137.61 159.02, 154.84 205 M154.84 205 C137.48 251, 120.11 296.99, 78 408.54 M154.84 205 C138.96 247.07, 123.08 289.14, 78 408.54 M78 408.54 C48.79 332.31, 19.58 256.09, 0 205 M78 408.54 C51.14 338.44, 24.28 268.35, 0 205 M0 205 C27.18 133.57, 54.36 62.14, 78 0 M0 205 C27.77 132.01, 55.54 59.02, 78 0" stroke="#1E1E1EFF" stroke-width="4" fill="none"/></g><g stroke-linecap="round" transform="translate(173.94589690495968 56.55179175190082) rotate(318.3216242045014 77.42053993930543 204.26899806037454)"><path d="M78 0 C102.58 65.57, 127.16 131.14, 154.84 205 M78 0 C107.8 79.51, 137.61 159.02, 154.84 205 M154.84 205 C137.48 251, 120.11 296.99, 78 408.54 M154.84 205 C138.96 247.07, 123.08 289.14, 78 408.54 M78 408.54 C48.79 332.31, 19.58 256.09, 0 205 M78 408.54 C51.14 338.44, 24.28 268.35, 0 205 M0 205 C27.18 133.57, 54.36 62.14, 78 0 M0 205 C27.77 132.01, 55.54 59.02, 78 0" stroke="#1E1E1EFF" stroke-width="4" fill="none"/></g><g stroke-linecap="round" transform="translate(174.72442557420703 58.94411904555898) rotate(291.0535442448725 77.42053993930543 204.26899806037454)"><path d="M78 0 C102.58 65.57, 127.16 131.14, 154.84 205 M78 0 C107.8 79.51, 137.61 159.02, 154.84 205 M154.84 205 C137.48 251, 120.11 296.99, 78 408.54 M154.84 205 C138.96 247.07, 123.08 289.14, 78 408.54 M78 408.54 C48.79 332.31, 19.58 256.09, 0 205 M78 408.54 C51.14 338.44, 24.28 268.35, 0 205 M0 205 C27.18 133.57, 54.36 62.14, 78 0 M0 205 C27.77 132.01, 55.54 59.02, 78 0" stroke="#1E1E1EFF" stroke-width="4" fill="none"/></g></svg>